<svg width="28" height="28" viewBox="0 0 28 28" fill="none" xmlns="http://www.w3.org/2000/svg">
<mask id="mask0_1989_10407" style="mask-type:alpha" maskUnits="userSpaceOnUse" x="2" y="2" width="24" height="24">
<rect x="2" y="2" width="24" height="24" fill="#D9D9D9"/>
</mask>
<g mask="url(#mask0_1989_10407)">
<path d="M6.99997 10.8077H21V8.30772C21 8.23079 20.9679 8.16026 20.9038 8.09614C20.8397 8.03204 20.7692 7.99999 20.6922 7.99999H7.3077C7.23077 7.99999 7.16024 8.03204 7.09612 8.09614C7.03202 8.16026 6.99997 8.23079 6.99997 8.30772V10.8077ZM7.3077 23.5C6.80257 23.5 6.375 23.325 6.025 22.975C5.675 22.625 5.5 22.1974 5.5 21.6923V8.30772C5.5 7.80259 5.675 7.37502 6.025 7.02502C6.375 6.67502 6.80257 6.50002 7.3077 6.50002H8.69232V5.15384C8.69232 4.93463 8.76573 4.75162 8.91253 4.60482C9.05931 4.45804 9.24232 4.38464 9.46155 4.38464C9.68077 4.38464 9.86378 4.45804 10.0106 4.60482C10.1574 4.75162 10.2307 4.93463 10.2307 5.15384V6.50002H17.8077V5.13462C17.8077 4.9218 17.8794 4.7436 18.023 4.60002C18.1666 4.45643 18.3448 4.38464 18.5576 4.38464C18.7704 4.38464 18.9486 4.45643 19.0922 4.60002C19.2358 4.7436 19.3076 4.9218 19.3076 5.13462V6.50002H20.6922C21.1974 6.50002 21.625 6.67502 21.975 7.02502C22.325 7.37502 22.5 7.80259 22.5 8.30772V13.0212C22.5 13.234 22.4282 13.4122 22.2845 13.5558C22.141 13.6994 21.9628 13.7711 21.75 13.7711C21.5371 13.7711 21.3589 13.6994 21.2154 13.5558C21.0718 13.4122 21 13.234 21 13.0212V12.3077H6.99997V21.6923C6.99997 21.7692 7.03202 21.8397 7.09612 21.9038C7.16024 21.9679 7.23077 22 7.3077 22H13.425C13.6378 22 13.816 22.0718 13.9596 22.2154C14.1032 22.359 14.175 22.5372 14.175 22.75C14.175 22.9628 14.1032 23.141 13.9596 23.2846C13.816 23.4282 13.6378 23.5 13.425 23.5H7.3077ZM20.1923 24.5C18.9436 24.5 17.8814 24.0622 17.0058 23.1865C16.1301 22.3109 15.6923 21.2487 15.6923 20C15.6923 18.7513 16.1301 17.6891 17.0058 16.8135C17.8814 15.9378 18.9436 15.5 20.1923 15.5C21.441 15.5 22.5032 15.9378 23.3788 16.8135C24.2544 17.6891 24.6922 18.7513 24.6922 20C24.6922 21.2487 24.2544 22.3109 23.3788 23.1865C22.5032 24.0622 21.441 24.5 20.1923 24.5ZM20.6346 19.8192V17.5C20.6346 17.3795 20.591 17.2756 20.5038 17.1885C20.4167 17.1013 20.3128 17.0577 20.1923 17.0577C20.0718 17.0577 19.9679 17.1013 19.8807 17.1885C19.7936 17.2756 19.75 17.3795 19.75 17.5V19.8038C19.75 19.9244 19.7718 20.0391 19.8154 20.1481C19.859 20.257 19.9275 20.3583 20.0211 20.4519L21.5461 21.9769C21.6333 22.0641 21.7356 22.1093 21.8529 22.1125C21.9702 22.1157 22.0756 22.0705 22.1692 21.9769C22.2628 21.8833 22.3096 21.7795 22.3096 21.6654C22.3096 21.5513 22.2628 21.4474 22.1692 21.3538L20.6346 19.8192Z" fill="#A8AEBD"/>
</g>
</svg>
